<!DOCTYPE svg PUBLIC "-//W3C//DTD SVG 1.1//EN" "http://www.w3.org/Graphics/SVG/1.1/DTD/svg11.dtd">

<!-- Uploaded to: SVG Repo, www.svgrepo.com, Transformed by: SVG Repo Mixer Tools -->
<svg fill="#ffffff" version="1.1" id="Capa_1" xmlns="http://www.w3.org/2000/svg" xmlns:xlink="http://www.w3.org/1999/xlink" width="256px" height="256px" viewBox="-11.36 -11.36 68.16 68.16" xml:space="preserve" stroke="#ffffff">

<g id="SVGRepo_bgCarrier" stroke-width="0">

<rect x="-11.36" y="-11.36" width="68.16" height="68.16" rx="34.08" fill="#C8474A" strokewidth="0"/>

</g>

<g id="SVGRepo_tracerCarrier" stroke-linecap="round" stroke-linejoin="round" stroke="#CCCCCC" stroke-width="0.27261599999999997"/>

<g id="SVGRepo_iconCarrier"> <g> <path d="M36.316,14.393l4.424-7.08c0.17-0.271,0.25-0.584,0.25-0.905V1.684C40.99,0.741,40.245,0,39.301,0h-4.494 c-0.943,0-1.739,0.741-1.739,1.684V4.22c0,0.387-0.281,0.712-0.668,0.712h-4.532c-0.387,0-0.704-0.325-0.704-0.712V1.684 C27.164,0.741,26.403,0,25.459,0h-5.484c-0.943,0-1.705,0.741-1.705,1.684V4.22c0,0.387-0.316,0.712-0.703,0.712h-4.532 c-0.387,0-0.669-0.325-0.669-0.712V1.684C12.367,0.741,11.572,0,10.628,0H6.134C5.191,0,4.446,0.741,4.446,1.684v4.724 c0,0.32,0.08,0.634,0.25,0.905l4.423,7.08c0.17,0.271,0.259,0.584,0.259,0.904v19.307c0,0.6-0.319,1.155-0.833,1.464l-3.278,1.971 c-0.514,0.309-0.821,0.864-0.821,1.465v4.246c0,0.944,0.744,1.686,1.688,1.686h33.167c0.942,0,1.688-0.741,1.688-1.686v-4.246 c0-0.601-0.305-1.156-0.818-1.465l-3.287-1.97c-0.514-0.31-0.828-0.864-0.828-1.464V15.297 C36.057,14.978,36.146,14.664,36.316,14.393z M27.163,24.426c0,0.695-0.56,1.281-1.255,1.281h-6.381 c-0.695,0-1.256-0.586-1.256-1.281v-5.483c0-2.417,1.957-4.369,4.374-4.369h0.145c2.418,0,4.373,1.952,4.373,4.369V24.426z"/> </g> </g>

</svg>